<svg data-v-423bf9ae="" xmlns="http://www.w3.org/2000/svg" viewBox="0 0 212.36002954430185 60" class="font"><!----><!----><!----><g data-v-423bf9ae="" id="19782a3c-778e-4559-968d-34715f172b3f" fill="#F7E1AD" transform="matrix(2.126151573515242,0,0,2.126151573515242,2.678950085236508,21.006378743323644)"><path d="M1.96-6.83L1.96-6.83Q1.79-6.37 1.70-5.64Q1.61-4.90 1.57-4.00Q1.53-3.09 1.52-2.07Q1.51-1.04 1.51 0.01L1.51 0.01Q1.51 0.71 1.49 1.80Q1.47 2.88 1.45 4.11Q1.43 5.33 1.41 6.59Q1.40 7.84 1.41 8.90Q1.41 9.95 1.45 10.70Q1.48 11.45 1.57 11.65L1.57 11.65Q1.74 12.03 2.02 12.36Q2.30 12.68 2.83 12.73L2.83 12.73Q2.30 13.12 1.89 13.44Q1.48 13.76 1.15 14.10L1.15 14.10Q0.88 13.96 0.67 13.74Q0.46 13.52 0.32 13.29Q0.17 13.05 0.08 12.82Q-0.01 12.59-0.03 12.40L-0.03 12.40Q-0.04 12.05-0.04 11.19Q-0.04 10.33-0.04 9.19Q-0.03 8.05-0.01 6.73Q0.01 5.42 0.03 4.16Q0.04 2.90 0.05 1.81Q0.06 0.71 0.06 0.01L0.06 0.01Q0.06-1.55 0.06-2.70Q0.07-3.84 0.05-4.66Q0.03-5.49-0.02-6.04Q-0.07-6.59-0.17-6.99L-0.17-6.99Q0.25-6.99 0.70-7.20Q1.15-7.41 1.62-7.71Q2.09-8.02 2.58-8.39Q3.08-8.75 3.60-9.06Q4.12-9.37 4.65-9.58Q5.18-9.79 5.73-9.79L5.73-9.79Q6.50-9.79 7.04-9.54Q7.57-9.30 7.91-8.90Q8.25-8.50 8.40-7.99Q8.55-7.48 8.55-6.93L8.55-6.93Q8.55-5.61 8.13-4.50Q7.71-3.39 7.02-2.46Q6.33-1.54 5.45-0.79Q4.56-0.04 3.64 0.55L3.64 0.55Q1.48 1.92-1.26 2.77L-1.26 2.77Q1.44 1.90 3.57 0.53L3.57 0.53Q4.47-0.06 5.33-0.80Q6.20-1.55 6.89-2.48Q7.57-3.40 7.99-4.52Q8.40-5.63 8.40-6.93L8.40-6.93Q8.40-7.45 8.27-7.94Q8.15-8.43 7.84-8.81Q7.53-9.18 7.01-9.41Q6.50-9.63 5.73-9.63L5.73-9.63Q4.93-9.63 4.26-9.31Q3.60-8.99 3.12-8.53Q2.63-8.08 2.33-7.60Q2.03-7.13 1.96-6.83ZM5.64 9.66L5.64 9.66Q5.64 10.08 5.80 10.59Q5.96 11.10 6.34 11.54Q6.72 11.98 7.33 12.29Q7.94 12.59 8.82 12.59L8.82 12.59Q9.28 12.59 9.55 12.46Q9.81 12.33 9.94 12.14Q10.07 11.96 10.10 11.75Q10.14 11.54 10.14 11.35L10.14 11.35Q10.14 10.75 9.91 10.16Q9.67 9.58 9.27 9.11Q8.86 8.65 8.31 8.37Q7.76 8.09 7.11 8.09L7.11 8.09Q6.69 8.09 6.41 8.25Q6.13 8.41 5.96 8.66Q5.78 8.90 5.71 9.18Q5.64 9.45 5.64 9.66ZM8.72 7L8.72 7Q9.14 7 9.63 7.18Q10.11 7.36 10.52 7.73Q10.93 8.09 11.20 8.66Q11.47 9.23 11.47 9.98L11.47 9.98Q11.47 10.42 11.26 10.88Q11.06 11.34 10.73 11.79Q10.40 12.24 9.98 12.63Q9.55 13.03 9.09 13.34Q8.64 13.64 8.18 13.82Q7.73 14 7.35 14L7.35 14Q6.78 14 6.25 13.76Q5.73 13.52 5.32 13.12Q4.91 12.71 4.67 12.19Q4.42 11.66 4.42 11.07L4.42 11.07Q4.42 10.28 4.86 9.54Q5.29 8.81 5.94 8.24Q6.58 7.67 7.33 7.34Q8.08 7 8.72 7ZM14.22-0.03L14.22-0.03Q14.22-3.22 14.17-4.93Q14.11-6.65 13.94-7.01L13.94-7.01Q14.36-7.01 14.80-7.22Q15.25-7.42 15.71-7.73Q16.17-8.04 16.66-8.40Q17.15-8.76 17.66-9.07Q18.17-9.38 18.73-9.58Q19.28-9.79 19.87-9.79L19.87-9.79Q20.65-9.79 21.18-9.55Q21.71-9.32 22.04-8.93Q22.36-8.54 22.49-8.04Q22.62-7.55 22.62-7.01L22.62-7.01Q22.62-5.70 22.20-4.59Q21.78-3.47 21.10-2.54Q20.41-1.61 19.53-0.85Q18.65-0.10 17.74 0.49L17.74 0.49Q15.60 1.88 12.87 2.74L12.87 2.74Q15.55 1.88 17.67 0.49L17.67 0.49Q18.56-0.10 19.43-0.85Q20.30-1.61 20.98-2.54Q21.66-3.47 22.07-4.59Q22.48-5.70 22.48-7.01L22.48-7.01Q22.48-7.55 22.36-8.02Q22.23-8.50 21.93-8.86Q21.63-9.23 21.13-9.44Q20.62-9.65 19.87-9.65L19.87-9.65Q19.04-9.65 18.38-9.33Q17.72-9.02 17.24-8.57Q16.76-8.13 16.46-7.66Q16.16-7.20 16.06-6.87L16.06-6.87Q15.90-6.40 15.82-5.85Q15.74-5.31 15.69-4.53Q15.65-3.75 15.64-2.65Q15.64-1.55 15.64 0.03L15.64 0.03Q15.64 0.71 15.64 1.48Q15.64 2.25 15.64 3.03Q15.65 3.81 15.66 4.52Q15.67 5.24 15.67 5.80Q15.68 6.36 15.68 6.71Q15.68 7.06 15.68 7.08L15.68 7.08Q15.93 7.17 16.22 7.20Q16.51 7.24 16.79 7.24Q17.07 7.24 17.32 7.22Q17.57 7.20 17.74 7.18L17.74 7.18Q17.57 7.38 17.30 7.51Q17.02 7.64 16.72 7.74Q16.42 7.84 16.13 7.90Q15.85 7.97 15.64 8.02L15.64 8.02Q15.67 8.54 15.62 9.06Q15.58 9.59 15.58 10.08Q15.58 10.57 15.67 11.00Q15.75 11.44 16.01 11.77Q16.27 12.11 16.75 12.33Q17.23 12.54 18.03 12.59L18.03 12.59Q17.82 12.77 17.59 13.01Q17.36 13.24 17.11 13.45Q16.86 13.66 16.59 13.81Q16.32 13.96 16.04 13.96L16.04 13.96Q15.75 13.96 15.46 13.84Q15.16 13.72 14.93 13.48Q14.70 13.24 14.55 12.91Q14.39 12.57 14.38 12.12L14.38 12.12Q14.34 10.99 14.31 9.93Q14.28 8.86 14.28 7.98L14.28 7.98Q13.92 7.95 13.67 7.92Q13.43 7.90 13.27 7.87L13.27 7.87Q13.09 7.83 12.96 7.78L12.96 7.78Q13.15 7.71 13.36 7.62L13.36 7.62Q13.54 7.53 13.75 7.41Q13.96 7.29 14.17 7.13L14.17 7.13Q14.18 7.07 14.19 6.71Q14.20 6.36 14.20 5.79Q14.21 5.22 14.22 4.50Q14.22 3.78 14.22 3.00Q14.22 2.23 14.22 1.45Q14.22 0.67 14.22-0.03ZM27.75-7.04L27.75-7.04Q27.75-5.73 27.33-4.61Q26.91-3.50 26.21-2.57Q25.52-1.64 24.64-0.88Q23.76-0.13 22.83 0.46L22.83 0.46Q20.68 1.85 17.93 2.73L17.93 2.73Q20.64 1.85 22.76 0.46L22.76 0.46Q23.66-0.13 24.53-0.88Q25.40-1.64 26.08-2.57Q26.77-3.50 27.18-4.61Q27.59-5.73 27.59-7.04L27.59-7.04Q27.59-7.56 27.47-8.04Q27.36-8.51 27.05-8.88Q26.74-9.24 26.23-9.46Q25.72-9.67 24.92-9.67L24.92-9.67Q24.18-9.67 23.54-9.34Q22.90-9.02 22.41-8.57Q21.92-8.12 21.59-7.64Q21.27-7.17 21.17-6.87L21.17-6.87Q21-6.41 20.92-5.68Q20.83-4.94 20.79-4.04Q20.75-3.14 20.74-2.11Q20.73-1.09 20.73-0.06L20.73-0.06Q20.73 0.48 20.73 1.17Q20.73 1.86 20.73 2.63Q20.72 3.40 20.72 4.21Q20.72 5.03 20.72 5.80L20.72 5.80L20.72 9.55Q21.24 8.83 21.78 8.27L21.78 8.27Q22.01 8.04 22.27 7.80Q22.53 7.57 22.80 7.39Q23.07 7.21 23.34 7.10Q23.60 6.99 23.86 6.99L23.86 6.99Q24.11 6.99 24.42 7.13Q24.72 7.27 25.00 7.56Q25.27 7.85 25.46 8.31Q25.65 8.76 25.65 9.39L25.65 9.39Q25.65 10.30 25.38 11.14Q25.12 11.97 24.74 12.68Q24.37 13.40 23.97 13.96Q23.58 14.52 23.30 14.88L23.30 14.88Q23.00 15.26 22.70 15.59Q22.40 15.92 22.11 16.19Q21.83 16.46 21.58 16.68Q21.34 16.90 21.17 17.04L21.17 17.04Q22.04 16.27 22.71 15.32L22.71 15.32Q23.00 14.91 23.27 14.43Q23.55 13.96 23.76 13.41Q23.98 12.87 24.11 12.26Q24.25 11.66 24.25 11.00L24.25 11.00Q24.25 10.39 24.07 9.90Q23.90 9.41 23.63 9.07Q23.37 8.74 23.05 8.56Q22.74 8.39 22.47 8.39L22.47 8.39Q21.92 8.39 21.56 8.76Q21.20 9.13 20.99 9.77Q20.78 10.42 20.68 11.28Q20.59 12.15 20.59 13.16L20.59 13.16Q20.29 13.34 19.93 13.57Q19.57 13.80 19.33 14.01L19.33 14.01Q19.36 13.72 19.38 13.08Q19.40 12.43 19.41 11.55Q19.42 10.67 19.41 9.61Q19.40 8.55 19.40 7.44Q19.39 6.33 19.38 5.21Q19.38 4.10 19.36 3.11Q19.35 2.11 19.34 1.29Q19.33 0.48 19.33-0.06L19.33-0.06Q19.33-1.09 19.33-2.00Q19.32-2.90 19.29-3.74Q19.26-4.58 19.21-5.38Q19.15-6.17 19.04-7L19.04-7Q19.46-7 19.91-7.21Q20.37-7.42 20.85-7.73Q21.32-8.05 21.83-8.41Q22.33-8.78 22.84-9.09Q23.35-9.41 23.87-9.62Q24.39-9.83 24.92-9.83L24.92-9.83Q25.72-9.83 26.26-9.59Q26.80-9.35 27.13-8.97Q27.45-8.58 27.60-8.08Q27.75-7.57 27.75-7.04ZM28.90-6.83L28.90-6.83Q28.73-6.37 28.64-5.64Q28.55-4.90 28.50-4.00Q28.46-3.09 28.45-2.07Q28.45-1.04 28.45 0.01L28.45 0.01Q28.45 0.71 28.43 1.80Q28.41 2.88 28.39 4.11Q28.36 5.33 28.35 6.59Q28.34 7.84 28.34 8.90Q28.35 9.95 28.39 10.70Q28.42 11.45 28.50 11.65L28.50 11.65Q28.67 12.03 28.95 12.36Q29.23 12.68 29.76 12.73L29.76 12.73Q29.23 13.12 28.83 13.44Q28.42 13.76 28.08 14.10L28.08 14.10Q27.82 13.96 27.61 13.74Q27.40 13.52 27.25 13.29Q27.10 13.05 27.01 12.82Q26.92 12.59 26.91 12.40L26.91 12.40Q26.89 12.05 26.89 11.19Q26.89 10.33 26.90 9.19Q26.91 8.05 26.93 6.73Q26.95 5.42 26.96 4.16Q26.98 2.90 26.98 1.81Q26.99 0.71 26.99 0.01L26.99 0.01Q26.99-1.55 27.00-2.70Q27.01-3.84 26.98-4.66Q26.96-5.49 26.91-6.04Q26.87-6.59 26.77-6.99L26.77-6.99Q27.19-6.99 27.64-7.20Q28.08-7.41 28.55-7.71Q29.02-8.02 29.52-8.39Q30.02-8.75 30.53-9.06Q31.05-9.37 31.58-9.58Q32.12-9.79 32.66-9.79L32.66-9.79Q33.43-9.79 33.97-9.54Q34.51-9.30 34.85-8.90Q35.18-8.50 35.34-7.99Q35.49-7.48 35.49-6.93L35.49-6.93Q35.49-5.61 35.07-4.50Q34.65-3.39 33.96-2.46Q33.26-1.54 32.38-0.79Q31.50-0.04 30.58 0.55L30.58 0.55Q28.42 1.92 25.68 2.77L25.68 2.77Q28.38 1.90 30.51 0.53L30.51 0.53Q31.40-0.06 32.27-0.80Q33.14-1.55 33.82-2.48Q34.51-3.40 34.92-4.52Q35.34-5.63 35.34-6.93L35.34-6.93Q35.34-7.45 35.21-7.94Q35.08-8.43 34.78-8.81Q34.47-9.18 33.95-9.41Q33.43-9.63 32.66-9.63L32.66-9.63Q31.86-9.63 31.20-9.31Q30.53-8.99 30.05-8.53Q29.57-8.08 29.27-7.60Q28.97-7.13 28.90-6.83ZM32.58 9.66L32.58 9.66Q32.58 10.08 32.74 10.59Q32.90 11.10 33.28 11.54Q33.66 11.98 34.27 12.29Q34.87 12.59 35.76 12.59L35.76 12.59Q36.22 12.59 36.48 12.46Q36.75 12.33 36.88 12.14Q37.00 11.96 37.04 11.75Q37.07 11.54 37.07 11.35L37.07 11.35Q37.07 10.75 36.84 10.16Q36.61 9.58 36.20 9.11Q35.80 8.65 35.24 8.37Q34.69 8.09 34.05 8.09L34.05 8.09Q33.63 8.09 33.35 8.25Q33.07 8.41 32.89 8.66Q32.72 8.90 32.65 9.18Q32.58 9.45 32.58 9.66ZM35.66 7L35.66 7Q36.08 7 36.56 7.18Q37.04 7.36 37.46 7.73Q37.87 8.09 38.14 8.66Q38.40 9.23 38.40 9.98L38.40 9.98Q38.40 10.42 38.20 10.88Q38.00 11.34 37.67 11.79Q37.34 12.24 36.91 12.63Q36.48 13.03 36.03 13.34Q35.57 13.64 35.12 13.82Q34.66 14 34.29 14L34.29 14Q33.71 14 33.19 13.76Q32.66 13.52 32.26 13.12Q31.85 12.71 31.61 12.19Q31.36 11.66 31.36 11.07L31.36 11.07Q31.36 10.28 31.79 9.54Q32.23 8.81 32.87 8.24Q33.52 7.67 34.27 7.34Q35.01 7 35.66 7ZM44.04 7.06L44.04 7.06Q44.25 7.06 44.49 7.07Q44.73 7.08 44.88 7.15L44.88 7.15Q44.73 7.36 44.59 7.69Q44.45 8.01 44.34 8.30L44.34 8.30Q44.20 8.67 44.09 9.03L44.09 9.03Q43.99 8.97 43.83 8.92L43.83 8.92Q43.71 8.88 43.52 8.83Q43.33 8.79 43.06 8.79L43.06 8.79Q42.64 8.79 42.37 9.02Q42.10 9.25 41.93 9.63Q41.76 10.00 41.67 10.44Q41.58 10.89 41.54 11.31L41.54 11.31Q41.54 12.12 41.56 12.57Q41.58 13.02 41.58 13.30L41.58 13.30Q41.40 13.34 41.18 13.42Q40.96 13.50 40.74 13.60Q40.52 13.71 40.30 13.81Q40.08 13.92 39.91 14.01L39.91 14.01Q39.98 13.38 40.03 12.71Q40.08 12.04 40.10 11.40Q40.12 10.75 40.10 10.17Q40.08 9.59 40.02 9.15Q39.96 8.71 39.86 8.43Q39.76 8.16 39.62 8.13L39.62 8.13Q39.55 8.12 39.47 8.12Q39.38 8.12 39.30 8.12L39.30 8.12Q39.20 8.12 39.10 8.13L39.10 8.13Q39.48 8.01 39.86 7.84L39.86 7.84Q40.18 7.69 40.57 7.48Q40.96 7.28 41.33 7.01L41.33 7.01Q41.37 7.20 41.40 7.51Q41.43 7.83 41.45 8.22Q41.48 8.62 41.50 9.07Q41.51 9.52 41.54 9.95L41.54 9.95Q41.75 9.48 42.03 8.97Q42.31 8.46 42.63 8.03Q42.95 7.60 43.32 7.33Q43.68 7.06 44.04 7.06ZM47.84 5.24L47.84 5.24Q47.66 5.38 47.47 5.53L47.47 5.53Q47.32 5.67 47.13 5.85Q46.94 6.03 46.79 6.23L46.79 6.23Q46.63 5.98 46.47 5.80Q46.30 5.61 46.14 5.49L46.14 5.49Q45.98 5.33 45.81 5.24L45.81 5.24Q45.99 5.10 46.16 4.94L46.16 4.94Q46.31 4.80 46.48 4.62Q46.65 4.44 46.79 4.23L46.79 4.23Q46.94 4.47 47.12 4.65Q47.31 4.84 47.46 4.97L47.46 4.97Q47.64 5.12 47.84 5.24ZM45.58 8.12L45.58 8.12Q45.92 7.98 46.22 7.88Q46.52 7.77 46.80 7.65Q47.07 7.53 47.33 7.38Q47.59 7.24 47.84 7.01L47.84 7.01Q47.95 7.39 47.94 7.93Q47.92 8.47 47.87 9.06Q47.82 9.66 47.81 10.26Q47.80 10.86 47.92 11.35Q48.03 11.84 48.34 12.17Q48.64 12.50 49.24 12.56L49.24 12.56Q48.64 12.95 48.21 13.30Q47.78 13.65 47.36 14.01L47.36 14.01Q47.24 13.96 47.08 13.89Q46.93 13.82 46.79 13.69Q46.65 13.55 46.54 13.35Q46.44 13.15 46.42 12.82L46.42 12.82Q46.44 11.87 46.47 11.01Q46.49 10.15 46.44 9.50Q46.38 8.85 46.19 8.48Q46.00 8.11 45.58 8.12ZM55.55 12.49L55.55 12.49Q55.96 12.49 56.32 12.38Q56.67 12.28 56.94 12.14L56.94 12.14Q57.25 11.98 57.51 11.79L57.51 11.79Q57.13 12.42 56.60 12.91L56.60 12.91Q56.15 13.33 55.48 13.67Q54.80 14.01 53.90 14.01L53.90 14.01Q53.26 14.01 52.67 13.79Q52.08 13.57 51.63 13.15Q51.17 12.73 50.90 12.12Q50.64 11.51 50.64 10.75L50.64 10.75Q50.64 10.07 50.86 9.54Q51.07 9.02 51.42 8.62Q51.77 8.23 52.21 7.97Q52.64 7.71 53.06 7.55L53.06 7.55Q54.40 7 54.89 7L54.89 7Q55.41 7 55.80 7.17Q56.18 7.35 56.46 7.56L56.46 7.56Q56.77 7.81 57.01 8.12L57.01 8.12L52.39 9.98Q52.49 10.57 52.67 11.03Q52.85 11.49 53.20 11.82Q53.55 12.14 54.11 12.31Q54.67 12.49 55.55 12.49ZM53.28 7.81L53.28 7.81Q53.09 7.81 52.91 7.92Q52.72 8.02 52.58 8.19Q52.43 8.36 52.35 8.57Q52.28 8.78 52.29 8.99L52.29 8.99Q52.29 9.21 52.30 9.42Q52.30 9.63 52.35 9.84L52.35 9.84L54.70 8.76Q54.56 8.50 54.35 8.29L54.35 8.29Q54.17 8.11 53.90 7.96Q53.63 7.81 53.28 7.81ZM63.48 6.99L63.48 6.99Q64.11 6.99 64.62 7.24Q65.14 7.49 65.51 7.90Q65.88 8.32 66.09 8.86Q66.29 9.39 66.29 9.97L66.29 9.97Q66.29 10.96 65.95 11.91Q65.62 12.85 65.00 13.58Q64.37 14.31 63.50 14.75Q62.62 15.19 61.54 15.19L61.54 15.19Q61.00 15.19 60.68 15.14Q60.37 15.09 60.08 15.04Q59.79 14.98 59.45 14.93Q59.11 14.88 58.51 14.88L58.51 14.88Q58.25 14.88 57.92 15.00Q57.58 15.12 57.28 15.37Q56.98 15.62 56.76 16.00Q56.55 16.38 56.55 16.88L56.55 16.88Q56.55 17.15 56.66 17.35Q56.77 17.54 56.96 17.70Q57.15 17.85 57.39 17.95Q57.62 18.06 57.88 18.13L57.88 18.13Q58.45 18.30 59.21 18.34L59.21 18.34Q58.41 18.31 57.79 18.16L57.79 18.16Q57.53 18.09 57.27 17.98Q57.02 17.88 56.83 17.72Q56.63 17.57 56.51 17.37Q56.39 17.16 56.39 16.88L56.39 16.88Q56.39 16.41 56.69 15.92Q56.98 15.43 57.47 15.04Q57.96 14.64 58.60 14.39Q59.23 14.14 59.92 14.14L59.92 14.14Q60.44 14.14 60.75 14.20Q61.05 14.25 61.33 14.31Q61.61 14.38 61.96 14.43Q62.31 14.48 62.92 14.48L62.92 14.48Q63.55 14.48 63.95 14.28Q64.36 14.08 64.59 13.70Q64.82 13.31 64.91 12.75Q65.00 12.18 65.00 11.42L65.00 11.42Q65.00 10.75 64.75 10.15Q64.50 9.55 64.07 9.09Q63.64 8.64 63.09 8.37Q62.54 8.11 61.94 8.11L61.94 8.11Q61.57 8.11 61.33 8.18Q61.10 8.25 60.89 8.44L60.89 8.44Q60.89 8.60 60.86 9.03Q60.83 9.46 60.82 10.11Q60.82 10.75 60.86 11.58Q60.90 12.40 61.05 13.34L61.05 13.34Q60.58 13.34 60.08 13.55Q59.58 13.76 59.21 14L59.21 14Q59.25 13.75 59.29 13.23Q59.33 12.71 59.36 12.09Q59.39 11.47 59.38 10.79Q59.37 10.12 59.33 9.55Q59.29 8.99 59.19 8.59Q59.08 8.19 58.90 8.11L58.90 8.11Q58.66 8.06 58.48 8.09L58.48 8.09Q58.39 8.11 58.32 8.13L58.32 8.13Q58.77 7.81 59.16 7.56L59.16 7.56Q59.50 7.35 59.85 7.17Q60.20 6.99 60.42 6.99L60.42 6.99Q60.58 6.99 60.67 7.02Q60.76 7.06 60.81 7.17Q60.86 7.29 60.87 7.50Q60.89 7.70 60.89 8.04L60.89 8.04Q61.56 7.55 62.22 7.27Q62.87 6.99 63.48 6.99ZM78.08-6.83L78.08-6.83Q77.91-6.37 77.82-5.64Q77.73-4.90 77.69-4.00Q77.64-3.09 77.64-2.07Q77.63-1.04 77.63 0.01L77.63 0.01Q77.63 0.71 77.61 1.80Q77.59 2.88 77.57 4.11Q77.55 5.33 77.53 6.59Q77.52 7.84 77.53 8.90Q77.53 9.95 77.57 10.70Q77.60 11.45 77.69 11.65L77.69 11.65Q77.85 12.03 78.13 12.36Q78.41 12.68 78.95 12.73L78.95 12.73Q78.41 13.12 78.01 13.44Q77.60 13.76 77.27 14.10L77.27 14.10Q77.00 13.96 76.79 13.74Q76.58 13.52 76.43 13.29Q76.29 13.05 76.20 12.82Q76.10 12.59 76.09 12.40L76.09 12.40Q76.08 12.05 76.08 11.19Q76.08 10.33 76.08 9.19Q76.09 8.05 76.11 6.73Q76.13 5.42 76.15 4.16Q76.16 2.90 76.17 1.81Q76.17 0.71 76.17 0.01L76.17 0.01Q76.17-1.55 76.18-2.70Q76.19-3.84 76.17-4.66Q76.15-5.49 76.10-6.04Q76.05-6.59 75.95-6.99L75.95-6.99Q76.37-6.99 76.82-7.20Q77.27-7.41 77.74-7.71Q78.20-8.02 78.70-8.39Q79.20-8.75 79.72-9.06Q80.23-9.37 80.77-9.58Q81.30-9.79 81.84-9.79L81.84-9.79Q82.61-9.79 83.15-9.54Q83.69-9.30 84.03-8.90Q84.36-8.50 84.52-7.99Q84.67-7.48 84.67-6.93L84.67-6.93Q84.67-5.61 84.25-4.50Q83.83-3.39 83.14-2.46Q82.45-1.54 81.56-0.79Q80.68-0.04 79.76 0.55L79.76 0.55Q77.60 1.92 74.86 2.77L74.86 2.77Q77.56 1.90 79.69 0.53L79.69 0.53Q80.58-0.06 81.45-0.80Q82.32-1.55 83.01-2.48Q83.69-3.40 84.11-4.52Q84.52-5.63 84.52-6.93L84.52-6.93Q84.52-7.45 84.39-7.94Q84.27-8.43 83.96-8.81Q83.65-9.18 83.13-9.41Q82.61-9.63 81.84-9.63L81.84-9.63Q81.05-9.63 80.38-9.31Q79.72-8.99 79.23-8.53Q78.75-8.08 78.45-7.60Q78.15-7.13 78.08-6.83ZM86.72 9.52L86.72 9.52Q86.83 9.79 87.04 10.30Q87.25 10.82 87.48 11.35Q87.71 11.89 87.93 12.29Q88.16 12.70 88.31 12.73L88.31 12.73Q87.89 12.96 87.44 13.30Q86.98 13.64 86.65 14L86.65 14Q86.58 13.69 86.39 13.14Q86.21 12.59 85.90 11.93L85.90 11.93Q85.64 12.19 85.23 12.55Q84.83 12.91 84.36 13.23Q83.90 13.55 83.41 13.78Q82.91 14 82.46 14L82.46 14Q82.14 14 81.80 13.91Q81.45 13.82 81.17 13.64Q80.89 13.47 80.72 13.22Q80.54 12.96 80.54 12.64L80.54 12.64Q80.54 12.25 80.95 11.80Q81.35 11.35 81.96 10.91Q82.56 10.47 83.26 10.05Q83.96 9.63 84.55 9.27L84.55 9.27Q84.11 8.72 83.73 8.48Q83.34 8.23 82.88 8.23L82.88 8.23Q82.68 8.23 82.37 8.34Q82.05 8.46 81.76 8.60L81.76 8.60Q81.40 8.75 81.03 8.95L81.03 8.95Q81.82 8.41 82.54 7.98L82.54 7.98Q82.85 7.80 83.17 7.63Q83.50 7.46 83.80 7.32Q84.10 7.18 84.36 7.10Q84.62 7.01 84.80 7.01L84.80 7.01Q85.15 7.01 85.45 7.31Q85.75 7.62 86.00 8.03Q86.24 8.44 86.42 8.86Q86.59 9.28 86.72 9.52ZM83.97 12.64L83.97 12.64Q84.31 12.64 84.62 12.54Q84.92 12.45 85.16 12.26Q85.39 12.08 85.53 11.83Q85.67 11.58 85.67 11.28L85.67 11.28Q85.55 11.10 85.43 10.88Q85.30 10.67 85.19 10.47L85.19 10.47Q85.08 10.22 84.96 9.99Q84.84 9.76 84.71 9.60L84.71 9.60Q84.41 9.72 83.97 9.92Q83.52 10.12 83.12 10.39Q82.71 10.67 82.43 10.99Q82.14 11.31 82.14 11.66L82.14 11.66Q82.14 11.86 82.29 12.03Q82.43 12.21 82.68 12.34Q82.92 12.47 83.26 12.56Q83.59 12.64 83.97 12.64ZM91.66 8.58L91.66 8.58Q92.16 8.12 92.68 7.76L92.68 7.76Q93.13 7.45 93.63 7.19Q94.14 6.93 94.58 6.93L94.58 6.93Q95.03 6.93 95.47 7.12Q95.91 7.31 96.26 7.67Q96.61 8.02 96.83 8.55Q97.05 9.07 97.05 9.73L97.05 9.73Q97.05 10.21 96.83 10.71Q96.61 11.21 96.24 11.69Q95.86 12.17 95.37 12.59Q94.88 13.02 94.33 13.34Q93.79 13.65 93.22 13.83Q92.65 14.01 92.13 14.01L92.13 14.01Q91.35 14.01 90.75 13.81Q90.15 13.61 89.87 13.36L89.87 13.36Q89.92 13.24 89.96 12.72Q89.99 12.19 90.01 11.39Q90.03 10.58 90.04 9.58Q90.05 8.57 90.05 7.47Q90.05 6.37 90.05 5.25Q90.05 4.13 90.04 3.13Q90.03 2.13 90.03 1.29Q90.02 0.46 90.02-0.06L90.02-0.06Q90.02-1.11 89.99-2.10Q89.96-3.09 89.92-4.00Q89.88-4.90 89.83-5.68Q89.78-6.45 89.73-7.06L89.73-7.06Q90.15-7.06 90.60-7.27Q91.06-7.48 91.54-7.79Q92.02-8.11 92.52-8.47Q93.02-8.83 93.53-9.15Q94.05-9.46 94.58-9.67Q95.10-9.88 95.63-9.88L95.63-9.88Q96.43-9.88 97.00-9.64Q97.57-9.39 97.92-9.00Q98.28-8.61 98.45-8.11Q98.62-7.62 98.62-7.10L98.62-7.10Q98.62-5.78 98.18-4.66Q97.75-3.54 97.05-2.60Q96.35-1.67 95.45-0.90Q94.54-0.14 93.60 0.46L93.60 0.46Q91.39 1.86 88.59 2.77L88.59 2.77Q91.35 1.88 93.53 0.49L93.53 0.49Q94.46-0.10 95.35-0.86Q96.24-1.62 96.93-2.57Q97.62-3.51 98.05-4.64Q98.48-5.77 98.48-7.10L98.48-7.10Q98.48-7.62 98.32-8.09Q98.17-8.57 97.83-8.93Q97.50-9.30 96.95-9.52Q96.40-9.74 95.63-9.74L95.63-9.74Q94.85-9.74 94.20-9.41Q93.55-9.09 93.07-8.63Q92.58-8.18 92.27-7.69Q91.95-7.21 91.85-6.92L91.85-6.92Q91.69-6.45 91.60-5.72Q91.52-4.98 91.48-4.07Q91.43-3.16 91.43-2.14Q91.42-1.11 91.42-0.06L91.42-0.06Q91.42 0.48 91.43 1.25Q91.43 2.02 91.44 2.93Q91.45 3.84 91.46 4.83Q91.48 5.82 91.50 6.80Q91.52 7.77 91.53 8.67Q91.55 9.56 91.56 10.28Q91.57 11.00 91.59 11.49Q91.60 11.97 91.62 12.12L91.62 12.12Q92.68 12.63 93.40 12.71Q94.12 12.80 94.56 12.58Q95.00 12.36 95.20 11.90Q95.40 11.44 95.40 10.85L95.40 10.85Q95.40 10.16 95.18 9.66Q94.96 9.16 94.63 8.83Q94.29 8.51 93.87 8.36Q93.45 8.20 93.04 8.20L93.04 8.20Q92.75 8.20 92.51 8.27Q92.26 8.33 92.06 8.40L92.06 8.40Q91.84 8.48 91.66 8.58Z"></path></g><!----><!----></svg>