<svg data-v-423bf9ae="" xmlns="http://www.w3.org/2000/svg" viewBox="0 0 212.9128172741164 60" class="font"><!----><!----><!----><g data-v-423bf9ae="" id="a1cf7eee-66c2-4000-b9c2-a906a61001a5" fill="#F7E1AD" transform="matrix(2.126151573515242,0,0,2.126151573515242,2.6789501107100904,21.006378743323644)"><path d="M1.96-6.83L1.96-6.83Q1.79-6.37 1.70-5.64Q1.61-4.90 1.57-4.00Q1.53-3.09 1.52-2.07Q1.51-1.04 1.51 0.01L1.51 0.01Q1.51 0.71 1.49 1.80Q1.47 2.88 1.45 4.11Q1.43 5.33 1.41 6.59Q1.40 7.84 1.41 8.90Q1.41 9.95 1.45 10.70Q1.48 11.45 1.57 11.65L1.57 11.65Q1.74 12.03 2.02 12.36Q2.30 12.68 2.83 12.73L2.83 12.73Q2.30 13.12 1.89 13.44Q1.48 13.76 1.15 14.10L1.15 14.10Q0.88 13.96 0.67 13.74Q0.46 13.52 0.32 13.29Q0.17 13.05 0.08 12.82Q-0.01 12.59-0.03 12.40L-0.03 12.40Q-0.04 12.05-0.04 11.19Q-0.04 10.33-0.04 9.19Q-0.03 8.05-0.01 6.73Q0.01 5.42 0.03 4.16Q0.04 2.90 0.05 1.81Q0.06 0.71 0.06 0.01L0.06 0.01Q0.06-1.55 0.06-2.70Q0.07-3.84 0.05-4.66Q0.03-5.49-0.02-6.04Q-0.07-6.59-0.17-6.99L-0.17-6.99Q0.25-6.99 0.70-7.20Q1.15-7.41 1.62-7.71Q2.09-8.02 2.58-8.39Q3.08-8.75 3.60-9.06Q4.12-9.37 4.65-9.58Q5.18-9.79 5.73-9.79L5.73-9.79Q6.50-9.79 7.04-9.54Q7.57-9.30 7.91-8.90Q8.25-8.50 8.40-7.99Q8.55-7.48 8.55-6.93L8.55-6.93Q8.55-5.61 8.13-4.50Q7.71-3.39 7.02-2.46Q6.33-1.54 5.45-0.79Q4.56-0.04 3.64 0.55L3.64 0.55Q1.48 1.92-1.26 2.77L-1.26 2.77Q1.44 1.90 3.57 0.53L3.57 0.53Q4.47-0.06 5.33-0.80Q6.20-1.55 6.89-2.48Q7.57-3.40 7.99-4.52Q8.40-5.63 8.40-6.93L8.40-6.93Q8.40-7.45 8.27-7.94Q8.15-8.43 7.84-8.81Q7.53-9.18 7.01-9.41Q6.50-9.63 5.73-9.63L5.73-9.63Q4.93-9.63 4.26-9.31Q3.60-8.99 3.12-8.53Q2.63-8.08 2.33-7.60Q2.03-7.13 1.96-6.83ZM5.64 9.66L5.64 9.66Q5.64 10.08 5.80 10.59Q5.96 11.10 6.34 11.54Q6.72 11.98 7.33 12.29Q7.94 12.59 8.82 12.59L8.82 12.59Q9.28 12.59 9.55 12.46Q9.81 12.33 9.94 12.14Q10.07 11.96 10.10 11.75Q10.14 11.54 10.14 11.35L10.14 11.35Q10.14 10.75 9.91 10.16Q9.67 9.58 9.27 9.11Q8.86 8.65 8.31 8.37Q7.76 8.09 7.11 8.09L7.11 8.09Q6.69 8.09 6.41 8.25Q6.13 8.41 5.96 8.66Q5.78 8.90 5.71 9.18Q5.64 9.45 5.64 9.66ZM8.72 7L8.72 7Q9.14 7 9.63 7.18Q10.11 7.36 10.52 7.73Q10.93 8.09 11.20 8.66Q11.47 9.23 11.47 9.98L11.47 9.98Q11.47 10.42 11.26 10.88Q11.06 11.34 10.73 11.79Q10.40 12.24 9.98 12.63Q9.55 13.03 9.09 13.34Q8.64 13.64 8.18 13.82Q7.73 14 7.35 14L7.35 14Q6.78 14 6.25 13.76Q5.73 13.52 5.32 13.12Q4.91 12.71 4.67 12.19Q4.42 11.66 4.42 11.07L4.42 11.07Q4.42 10.28 4.86 9.54Q5.29 8.81 5.94 8.24Q6.58 7.67 7.33 7.34Q8.08 7 8.72 7ZM17.11 7.06L17.11 7.06Q17.32 7.06 17.56 7.07Q17.79 7.08 17.95 7.15L17.95 7.15Q17.79 7.36 17.65 7.69Q17.51 8.01 17.40 8.30L17.40 8.30Q17.26 8.67 17.15 9.03L17.15 9.03Q17.05 8.97 16.90 8.92L16.90 8.92Q16.77 8.88 16.58 8.83Q16.39 8.79 16.13 8.79L16.13 8.79Q15.71 8.79 15.43 9.02Q15.16 9.25 14.99 9.63Q14.83 10.00 14.73 10.44Q14.64 10.89 14.60 11.31L14.60 11.31Q14.60 12.12 14.62 12.57Q14.64 13.02 14.64 13.30L14.64 13.30Q14.46 13.34 14.24 13.42Q14.03 13.50 13.80 13.60Q13.58 13.71 13.36 13.81Q13.15 13.92 12.98 14.01L12.98 14.01Q13.05 13.38 13.10 12.71Q13.15 12.04 13.17 11.40Q13.19 10.75 13.17 10.17Q13.15 9.59 13.08 9.15Q13.02 8.71 12.92 8.43Q12.82 8.16 12.68 8.13L12.68 8.13Q12.61 8.12 12.53 8.12Q12.45 8.12 12.36 8.12L12.36 8.12Q12.26 8.12 12.17 8.13L12.17 8.13Q12.54 8.01 12.92 7.84L12.92 7.84Q13.24 7.69 13.64 7.48Q14.03 7.28 14.39 7.01L14.39 7.01Q14.43 7.20 14.46 7.51Q14.49 7.83 14.52 8.22Q14.55 8.62 14.56 9.07Q14.57 9.52 14.60 9.95L14.60 9.95Q14.81 9.48 15.09 8.97Q15.37 8.46 15.69 8.03Q16.02 7.60 16.38 7.33Q16.74 7.06 17.11 7.06ZM22.23 0.01L22.23 0.01Q23.39 0.01 24.28 0.41Q25.16 0.80 25.73 1.37Q26.31 1.93 26.56 2.57Q26.82 3.21 26.74 3.68L26.74 3.68Q26.74 3.08 26.38 2.46Q26.01 1.85 25.39 1.34Q24.77 0.84 23.96 0.53Q23.16 0.21 22.27 0.21L22.27 0.21Q21.64 0.21 20.90 0.41Q20.16 0.62 19.53 0.95Q18.90 1.27 18.48 1.69Q18.06 2.11 18.06 2.55L18.06 2.55Q18.06 2.93 18.30 3.35Q18.54 3.77 18.91 4.19Q19.29 4.61 19.77 5.00Q20.24 5.40 20.71 5.74Q21.18 6.08 21.61 6.34Q22.04 6.61 22.32 6.75L22.32 6.75Q22.72 6.96 23.31 7.20Q23.90 7.43 24.44 7.80Q24.99 8.16 25.38 8.72Q25.76 9.28 25.76 10.12L25.76 10.12Q25.76 10.58 25.62 10.96Q25.48 11.34 25.25 11.67Q25.02 12.00 24.72 12.29Q24.42 12.57 24.09 12.82L24.09 12.82Q23.42 13.37 22.81 13.69Q22.20 14.01 21.56 14.01L21.56 14.01Q21.01 14.01 20.57 13.79Q20.12 13.57 19.80 13.22Q19.47 12.87 19.30 12.43Q19.12 12.00 19.12 11.58L19.12 11.58Q19.12 10.98 19.26 10.57Q19.40 10.16 19.63 9.88Q19.85 9.60 20.14 9.41Q20.43 9.21 20.72 9.03L20.72 9.03Q21 8.82 21.29 8.65Q21.59 8.48 21.91 8.37L21.91 8.37Q21.41 8.13 20.94 7.88Q20.47 7.63 20.12 7.35L20.12 7.35Q19.73 7.08 19.12 6.66Q18.52 6.24 17.95 5.73Q17.37 5.22 16.96 4.65Q16.55 4.07 16.55 3.50L16.55 3.50Q16.55 3.08 16.85 2.65Q17.15 2.23 17.63 1.84Q18.12 1.46 18.74 1.12Q19.36 0.78 19.99 0.54Q20.62 0.29 21.21 0.15Q21.80 0.01 22.23 0.01ZM24.21 10.96L24.21 10.96Q24.21 10.54 24.03 10.19Q23.86 9.83 23.57 9.53Q23.28 9.23 22.90 8.97Q22.51 8.72 22.09 8.51L22.09 8.51Q21.84 8.55 21.57 8.70Q21.31 8.85 21.08 9.08Q20.86 9.31 20.72 9.63Q20.58 9.94 20.58 10.30L20.58 10.30Q20.58 10.75 20.75 11.17Q20.92 11.59 21.23 11.91Q21.55 12.24 22.01 12.44Q22.47 12.64 23.07 12.64L23.07 12.64Q23.55 12.64 23.79 12.52Q24.02 12.40 24.12 12.19Q24.21 11.97 24.21 11.66Q24.21 11.35 24.21 10.96ZM29.16-6.83L29.16-6.83Q28.99-6.37 28.90-5.64Q28.81-4.90 28.77-4.00Q28.73-3.09 28.72-2.07Q28.71-1.04 28.71 0.01L28.71 0.01Q28.71 0.71 28.69 1.80Q28.67 2.88 28.65 4.11Q28.63 5.33 28.62 6.59Q28.60 7.84 28.61 8.90Q28.62 9.95 28.65 10.70Q28.69 11.45 28.77 11.65L28.77 11.65Q28.94 12.03 29.22 12.36Q29.50 12.68 30.03 12.73L30.03 12.73Q29.50 13.12 29.09 13.44Q28.69 13.76 28.35 14.10L28.35 14.10Q28.08 13.96 27.87 13.74Q27.66 13.52 27.52 13.29Q27.37 13.05 27.28 12.82Q27.19 12.59 27.17 12.40L27.17 12.40Q27.16 12.05 27.16 11.19Q27.16 10.33 27.17 9.19Q27.17 8.05 27.19 6.73Q27.22 5.42 27.23 4.16Q27.24 2.90 27.25 1.81Q27.26 0.71 27.26 0.01L27.26 0.01Q27.26-1.55 27.26-2.70Q27.27-3.84 27.25-4.66Q27.23-5.49 27.18-6.04Q27.13-6.59 27.03-6.99L27.03-6.99Q27.45-6.99 27.90-7.20Q28.35-7.41 28.82-7.71Q29.29-8.02 29.78-8.39Q30.28-8.75 30.80-9.06Q31.32-9.37 31.85-9.58Q32.38-9.79 32.93-9.79L32.93-9.79Q33.70-9.79 34.24-9.54Q34.78-9.30 35.11-8.90Q35.45-8.50 35.60-7.99Q35.76-7.48 35.76-6.93L35.76-6.93Q35.76-5.61 35.34-4.50Q34.92-3.39 34.22-2.46Q33.53-1.54 32.65-0.79Q31.77-0.04 30.84 0.55L30.84 0.55Q28.69 1.92 25.94 2.77L25.94 2.77Q28.64 1.90 30.77 0.53L30.77 0.53Q31.67-0.06 32.54-0.80Q33.40-1.55 34.09-2.48Q34.78-3.40 35.19-4.52Q35.60-5.63 35.60-6.93L35.60-6.93Q35.60-7.45 35.48-7.94Q35.35-8.43 35.04-8.81Q34.73-9.18 34.22-9.41Q33.70-9.63 32.93-9.63L32.93-9.63Q32.13-9.63 31.46-9.31Q30.80-8.99 30.32-8.53Q29.83-8.08 29.53-7.60Q29.23-7.13 29.16-6.83ZM32.84 9.66L32.84 9.66Q32.84 10.08 33.00 10.59Q33.17 11.10 33.54 11.54Q33.92 11.98 34.53 12.29Q35.14 12.59 36.02 12.59L36.02 12.59Q36.48 12.59 36.75 12.46Q37.02 12.33 37.14 12.14Q37.27 11.96 37.30 11.75Q37.34 11.54 37.34 11.35L37.34 11.35Q37.34 10.75 37.11 10.16Q36.88 9.58 36.47 9.11Q36.06 8.65 35.51 8.37Q34.96 8.09 34.31 8.09L34.31 8.09Q33.89 8.09 33.61 8.25Q33.33 8.41 33.16 8.66Q32.98 8.90 32.91 9.18Q32.84 9.45 32.84 9.66ZM35.92 7L35.92 7Q36.34 7 36.83 7.18Q37.31 7.36 37.72 7.73Q38.14 8.09 38.40 8.66Q38.67 9.23 38.67 9.98L38.67 9.98Q38.67 10.42 38.46 10.88Q38.26 11.34 37.93 11.79Q37.60 12.24 37.18 12.63Q36.75 13.03 36.30 13.34Q35.84 13.64 35.38 13.82Q34.93 14 34.55 14L34.55 14Q33.98 14 33.45 13.76Q32.93 13.52 32.52 13.12Q32.12 12.71 31.87 12.19Q31.63 11.66 31.63 11.07L31.63 11.07Q31.63 10.28 32.06 9.54Q32.49 8.81 33.14 8.24Q33.78 7.67 34.53 7.34Q35.28 7 35.92 7ZM44.31 7.06L44.31 7.06Q44.52 7.06 44.76 7.07Q45.00 7.08 45.15 7.15L45.15 7.15Q45.00 7.36 44.86 7.69Q44.72 8.01 44.60 8.30L44.60 8.30Q44.46 8.67 44.35 9.03L44.35 9.03Q44.25 8.97 44.10 8.92L44.10 8.92Q43.97 8.88 43.78 8.83Q43.60 8.79 43.33 8.79L43.33 8.79Q42.91 8.79 42.64 9.02Q42.36 9.25 42.20 9.63Q42.03 10.00 41.94 10.44Q41.85 10.89 41.80 11.31L41.80 11.31Q41.80 12.12 41.82 12.57Q41.85 13.02 41.85 13.30L41.85 13.30Q41.66 13.34 41.45 13.42Q41.23 13.50 41.01 13.60Q40.78 13.71 40.56 13.81Q40.35 13.92 40.18 14.01L40.18 14.01Q40.25 13.38 40.30 12.71Q40.35 12.04 40.37 11.40Q40.39 10.75 40.37 10.17Q40.35 9.59 40.28 9.15Q40.22 8.71 40.12 8.43Q40.03 8.16 39.89 8.13L39.89 8.13Q39.82 8.12 39.73 8.12Q39.65 8.12 39.56 8.12L39.56 8.12Q39.47 8.12 39.37 8.13L39.37 8.13Q39.75 8.01 40.12 7.84L40.12 7.84Q40.45 7.69 40.84 7.48Q41.23 7.28 41.59 7.01L41.59 7.01Q41.64 7.20 41.66 7.51Q41.69 7.83 41.72 8.22Q41.75 8.62 41.76 9.07Q41.78 9.52 41.80 9.95L41.80 9.95Q42.01 9.48 42.29 8.97Q42.57 8.46 42.90 8.03Q43.22 7.60 43.58 7.33Q43.95 7.06 44.31 7.06ZM48.10 5.24L48.10 5.24Q47.92 5.38 47.74 5.53L47.74 5.53Q47.59 5.67 47.40 5.85Q47.21 6.03 47.05 6.23L47.05 6.23Q46.90 5.98 46.73 5.80Q46.56 5.61 46.41 5.49L46.41 5.49Q46.24 5.33 46.07 5.24L46.07 5.24Q46.26 5.10 46.42 4.94L46.42 4.94Q46.58 4.80 46.75 4.62Q46.91 4.44 47.05 4.23L47.05 4.23Q47.21 4.47 47.39 4.65Q47.57 4.84 47.73 4.97L47.73 4.97Q47.91 5.12 48.10 5.24ZM45.85 8.12L45.85 8.12Q46.19 7.98 46.49 7.88Q46.79 7.77 47.06 7.65Q47.33 7.53 47.59 7.38Q47.85 7.24 48.10 7.01L48.10 7.01Q48.22 7.39 48.20 7.93Q48.19 8.47 48.14 9.06Q48.09 9.66 48.08 10.26Q48.06 10.86 48.18 11.35Q48.30 11.84 48.60 12.17Q48.90 12.50 49.50 12.56L49.50 12.56Q48.90 12.95 48.47 13.30Q48.05 13.65 47.63 14.01L47.63 14.01Q47.50 13.96 47.35 13.89Q47.19 13.82 47.05 13.69Q46.91 13.55 46.81 13.35Q46.70 13.15 46.69 12.82L46.69 12.82Q46.70 11.87 46.73 11.01Q46.76 10.15 46.70 9.50Q46.65 8.85 46.46 8.48Q46.27 8.11 45.85 8.12ZM55.82 12.49L55.82 12.49Q56.22 12.49 56.58 12.38Q56.94 12.28 57.20 12.14L57.20 12.14Q57.51 11.98 57.78 11.79L57.78 11.79Q57.40 12.42 56.87 12.91L56.87 12.91Q56.42 13.33 55.74 13.67Q55.06 14.01 54.17 14.01L54.17 14.01Q53.52 14.01 52.93 13.79Q52.35 13.57 51.89 13.15Q51.44 12.73 51.17 12.12Q50.90 11.51 50.90 10.75L50.90 10.75Q50.90 10.07 51.12 9.54Q51.34 9.02 51.69 8.62Q52.04 8.23 52.47 7.97Q52.91 7.71 53.33 7.55L53.33 7.55Q54.67 7 55.16 7L55.16 7Q55.68 7 56.06 7.17Q56.45 7.35 56.73 7.56L56.73 7.56Q57.04 7.81 57.27 8.12L57.27 8.12L52.65 9.98Q52.75 10.57 52.93 11.03Q53.12 11.49 53.47 11.82Q53.82 12.14 54.38 12.31Q54.94 12.49 55.82 12.49ZM53.55 7.81L53.55 7.81Q53.35 7.81 53.17 7.92Q52.99 8.02 52.84 8.19Q52.70 8.36 52.62 8.57Q52.54 8.78 52.56 8.99L52.56 8.99Q52.56 9.21 52.56 9.42Q52.57 9.63 52.61 9.84L52.61 9.84L54.96 8.76Q54.82 8.50 54.61 8.29L54.61 8.29Q54.43 8.11 54.17 7.96Q53.90 7.81 53.55 7.81ZM63.74 6.99L63.74 6.99Q64.37 6.99 64.89 7.24Q65.41 7.49 65.78 7.90Q66.15 8.32 66.35 8.86Q66.56 9.39 66.56 9.97L66.56 9.97Q66.56 10.96 66.22 11.91Q65.88 12.85 65.26 13.58Q64.64 14.31 63.76 14.75Q62.89 15.19 61.81 15.19L61.81 15.19Q61.26 15.19 60.95 15.14Q60.63 15.09 60.35 15.04Q60.06 14.98 59.72 14.93Q59.37 14.88 58.77 14.88L58.77 14.88Q58.52 14.88 58.18 15.00Q57.85 15.12 57.55 15.37Q57.25 15.62 57.03 16.00Q56.81 16.38 56.81 16.88L56.81 16.88Q56.81 17.15 56.92 17.35Q57.04 17.54 57.22 17.70Q57.41 17.85 57.65 17.95Q57.89 18.06 58.14 18.13L58.14 18.13Q58.72 18.30 59.47 18.34L59.47 18.34Q58.67 18.31 58.06 18.16L58.06 18.16Q57.79 18.09 57.54 17.98Q57.29 17.88 57.09 17.72Q56.90 17.57 56.78 17.37Q56.66 17.16 56.66 16.88L56.66 16.88Q56.66 16.41 56.95 15.92Q57.25 15.43 57.74 15.04Q58.23 14.64 58.86 14.39Q59.50 14.14 60.19 14.14L60.19 14.14Q60.70 14.14 61.01 14.20Q61.32 14.25 61.60 14.31Q61.88 14.38 62.23 14.43Q62.58 14.48 63.18 14.48L63.18 14.48Q63.81 14.48 64.22 14.28Q64.62 14.08 64.86 13.70Q65.09 13.31 65.18 12.75Q65.27 12.18 65.27 11.42L65.27 11.42Q65.27 10.75 65.02 10.15Q64.76 9.55 64.34 9.09Q63.91 8.64 63.36 8.37Q62.80 8.11 62.20 8.11L62.20 8.11Q61.84 8.11 61.60 8.18Q61.36 8.25 61.15 8.44L61.15 8.44Q61.15 8.60 61.12 9.03Q61.10 9.46 61.09 10.11Q61.08 10.75 61.12 11.58Q61.17 12.40 61.32 13.34L61.32 13.34Q60.84 13.34 60.35 13.55Q59.85 13.76 59.47 14L59.47 14Q59.51 13.75 59.56 13.23Q59.60 12.71 59.63 12.09Q59.65 11.47 59.65 10.79Q59.64 10.12 59.60 9.55Q59.56 8.99 59.45 8.59Q59.35 8.19 59.16 8.11L59.16 8.11Q58.93 8.06 58.74 8.09L58.74 8.09Q58.66 8.11 58.59 8.13L58.59 8.13Q59.04 7.81 59.43 7.56L59.43 7.56Q59.77 7.35 60.12 7.17Q60.47 6.99 60.69 6.99L60.69 6.99Q60.84 6.99 60.93 7.02Q61.03 7.06 61.07 7.17Q61.12 7.29 61.14 7.50Q61.15 7.70 61.15 8.04L61.15 8.04Q61.82 7.55 62.48 7.27Q63.14 6.99 63.74 6.99ZM78.34-6.83L78.34-6.83Q78.18-6.37 78.08-5.64Q77.99-4.90 77.95-4.00Q77.91-3.09 77.90-2.07Q77.90-1.04 77.90 0.01L77.90 0.01Q77.90 0.71 77.88 1.80Q77.85 2.88 77.83 4.11Q77.81 5.33 77.80 6.59Q77.78 7.84 77.79 8.90Q77.80 9.95 77.83 10.70Q77.87 11.45 77.95 11.65L77.95 11.65Q78.12 12.03 78.40 12.36Q78.68 12.68 79.21 12.73L79.21 12.73Q78.68 13.12 78.27 13.44Q77.87 13.76 77.53 14.10L77.53 14.10Q77.27 13.96 77.06 13.74Q76.85 13.52 76.70 13.29Q76.55 13.05 76.46 12.82Q76.37 12.59 76.36 12.40L76.36 12.40Q76.34 12.05 76.34 11.19Q76.34 10.33 76.35 9.19Q76.36 8.05 76.38 6.73Q76.40 5.42 76.41 4.16Q76.43 2.90 76.43 1.81Q76.44 0.71 76.44 0.01L76.44 0.01Q76.44-1.55 76.45-2.70Q76.45-3.84 76.43-4.66Q76.41-5.49 76.36-6.04Q76.31-6.59 76.22-6.99L76.22-6.99Q76.64-6.99 77.08-7.20Q77.53-7.41 78.00-7.71Q78.47-8.02 78.97-8.39Q79.46-8.75 79.98-9.06Q80.50-9.37 81.03-9.58Q81.56-9.79 82.11-9.79L82.11-9.79Q82.88-9.79 83.42-9.54Q83.96-9.30 84.29-8.90Q84.63-8.50 84.78-7.99Q84.94-7.48 84.94-6.93L84.94-6.93Q84.94-5.61 84.52-4.50Q84.10-3.39 83.41-2.46Q82.71-1.54 81.83-0.79Q80.95-0.04 80.02 0.55L80.02 0.55Q77.87 1.92 75.12 2.77L75.12 2.77Q77.83 1.90 79.95 0.53L79.95 0.53Q80.85-0.06 81.72-0.80Q82.59-1.55 83.27-2.48Q83.96-3.40 84.37-4.52Q84.78-5.63 84.78-6.93L84.78-6.93Q84.78-7.45 84.66-7.94Q84.53-8.43 84.22-8.81Q83.92-9.18 83.40-9.41Q82.88-9.63 82.11-9.63L82.11-9.63Q81.31-9.63 80.65-9.31Q79.98-8.99 79.50-8.53Q79.02-8.08 78.72-7.60Q78.41-7.13 78.34-6.83ZM86.98 9.52L86.98 9.52Q87.09 9.79 87.30 10.30Q87.51 10.82 87.75 11.35Q87.98 11.89 88.20 12.29Q88.42 12.70 88.58 12.73L88.58 12.73Q88.16 12.96 87.70 13.30Q87.25 13.64 86.91 14L86.91 14Q86.84 13.69 86.66 13.14Q86.48 12.59 86.17 11.93L86.17 11.93Q85.90 12.19 85.50 12.55Q85.09 12.91 84.63 13.23Q84.17 13.55 83.67 13.78Q83.17 14 82.73 14L82.73 14Q82.40 14 82.06 13.91Q81.72 13.82 81.44 13.64Q81.16 13.47 80.98 13.22Q80.81 12.96 80.81 12.64L80.81 12.64Q80.81 12.25 81.21 11.80Q81.62 11.35 82.22 10.91Q82.82 10.47 83.52 10.05Q84.22 9.63 84.81 9.27L84.81 9.27Q84.38 8.72 83.99 8.48Q83.61 8.23 83.15 8.23L83.15 8.23Q82.95 8.23 82.64 8.34Q82.32 8.46 82.03 8.60L82.03 8.60Q81.66 8.75 81.30 8.95L81.30 8.95Q82.08 8.41 82.81 7.98L82.81 7.98Q83.12 7.80 83.44 7.63Q83.76 7.46 84.06 7.32Q84.36 7.18 84.62 7.10Q84.88 7.01 85.06 7.01L85.06 7.01Q85.41 7.01 85.72 7.31Q86.02 7.62 86.26 8.03Q86.51 8.44 86.68 8.86Q86.86 9.28 86.98 9.52ZM84.24 12.64L84.24 12.64Q84.57 12.64 84.88 12.54Q85.19 12.45 85.42 12.26Q85.65 12.08 85.79 11.83Q85.93 11.58 85.93 11.28L85.93 11.28Q85.82 11.10 85.69 10.88Q85.57 10.67 85.46 10.47L85.46 10.47Q85.34 10.22 85.23 9.99Q85.11 9.76 84.98 9.60L84.98 9.60Q84.67 9.72 84.23 9.92Q83.79 10.12 83.38 10.39Q82.98 10.67 82.69 10.99Q82.40 11.31 82.40 11.66L82.40 11.66Q82.40 11.86 82.55 12.03Q82.70 12.21 82.94 12.34Q83.19 12.47 83.52 12.56Q83.86 12.64 84.24 12.64ZM91.92 8.58L91.92 8.58Q92.43 8.12 92.95 7.76L92.95 7.76Q93.39 7.45 93.90 7.19Q94.40 6.93 94.85 6.93L94.85 6.93Q95.30 6.93 95.74 7.12Q96.18 7.31 96.53 7.67Q96.88 8.02 97.10 8.55Q97.31 9.07 97.31 9.73L97.31 9.73Q97.31 10.21 97.10 10.71Q96.88 11.21 96.50 11.69Q96.12 12.17 95.63 12.59Q95.14 13.02 94.60 13.34Q94.05 13.65 93.49 13.83Q92.92 14.01 92.40 14.01L92.40 14.01Q91.62 14.01 91.01 13.81Q90.41 13.61 90.13 13.36L90.13 13.36Q90.19 13.24 90.22 12.72Q90.26 12.19 90.28 11.39Q90.30 10.58 90.31 9.58Q90.31 8.57 90.31 7.47Q90.31 6.37 90.31 5.25Q90.31 4.13 90.31 3.13Q90.30 2.13 90.29 1.29Q90.29 0.46 90.29-0.06L90.29-0.06Q90.29-1.11 90.26-2.10Q90.23-3.09 90.19-4.00Q90.15-4.90 90.10-5.68Q90.05-6.45 89.99-7.06L89.99-7.06Q90.41-7.06 90.87-7.27Q91.32-7.48 91.81-7.79Q92.29-8.11 92.79-8.47Q93.28-8.83 93.80-9.15Q94.32-9.46 94.84-9.67Q95.37-9.88 95.90-9.88L95.90-9.88Q96.70-9.88 97.27-9.64Q97.83-9.39 98.19-9.00Q98.55-8.61 98.71-8.11Q98.88-7.62 98.88-7.10L98.88-7.10Q98.88-5.78 98.45-4.66Q98.01-3.54 97.31-2.60Q96.61-1.67 95.71-0.90Q94.81-0.14 93.87 0.46L93.87 0.46Q91.66 1.86 88.86 2.77L88.86 2.77Q91.62 1.88 93.80 0.49L93.80 0.49Q94.72-0.10 95.61-0.86Q96.50-1.62 97.20-2.57Q97.89-3.51 98.32-4.64Q98.74-5.77 98.74-7.10L98.74-7.10Q98.74-7.62 98.59-8.09Q98.43-8.57 98.10-8.93Q97.76-9.30 97.22-9.52Q96.67-9.74 95.90-9.74L95.90-9.74Q95.12-9.74 94.47-9.41Q93.81-9.09 93.33-8.63Q92.85-8.18 92.53-7.69Q92.22-7.21 92.12-6.92L92.12-6.92Q91.95-6.45 91.87-5.72Q91.78-4.98 91.74-4.07Q91.70-3.16 91.69-2.14Q91.69-1.11 91.69-0.06L91.69-0.06Q91.69 0.48 91.69 1.25Q91.70 2.02 91.71 2.93Q91.71 3.84 91.73 4.83Q91.74 5.82 91.76 6.80Q91.78 7.77 91.80 8.67Q91.81 9.56 91.83 10.28Q91.84 11.00 91.85 11.49Q91.87 11.97 91.88 12.12L91.88 12.12Q92.95 12.63 93.67 12.71Q94.39 12.80 94.83 12.58Q95.27 12.36 95.47 11.90Q95.66 11.44 95.66 10.85L95.66 10.85Q95.66 10.16 95.45 9.66Q95.23 9.16 94.89 8.83Q94.56 8.51 94.14 8.36Q93.72 8.20 93.31 8.20L93.31 8.20Q93.02 8.20 92.77 8.27Q92.53 8.33 92.33 8.40L92.33 8.40Q92.11 8.48 91.92 8.58Z"></path></g><!----><!----></svg>